<svg width="32" height="32" viewBox="0 0 32 32" fill="currentColor" xmlns="http://www.w3.org/2000/svg">
	<path
		d="M 4,5 C 2.3552989,5 1,6.3552989 1,8 v 16 c 0,1.644701 1.3552989,3 3,3 h 24 c 1.644701,0 3,-1.355299 3,-3 V 8 C 31,6.3552989 29.644701,5 28,5 Z m 0,2 h 24 c 0.571297,0 1,0.4287033 1,1 v 16 c 0,0.571297 -0.428703,1 -1,1 H 4 C 3.4287033,25 3,24.571297 3,24 V 8 C 3,7.4287033 3.4287033,7 4,7 Z" />
	<path
		d="m 11,9 c -0.552283,0 -1,0.4477165 -1,1 v 4 H 6 a 1,1 0 0 0 -1,1 1,1 0 0 0 1,1 h 12 v 6 c 0,0.552284 0.447716,1 1,1 0.552284,0 1,-0.447716 1,-1 v -6 h 6 a 1,1 0 0 0 1,-1 1,1 0 0 0 -1,-1 H 12 V 10 C 12,9.4477165 11.552284,9 11,9 Z" />
</svg>
