<svg width="40" height="40" viewBox="0 0 40 40" version="1.1" fill="currentColor" xmlns="http://www.w3.org/2000/svg">
	<path
		d="M 12,5 C 10.355301,5 9,6.3553005 9,8 v 3 h 2 V 8 c 0,-0.5712961 0.428704,-1 1,-1 h 24 c 0.571296,0 1,0.4287039 1,1 v 16 c 0,0.571296 -0.428704,1 -1,1 h -3 v 2 h 3 c 1.644699,0 3,-1.355301 3,-3 V 8 C 39,6.3553005 37.644699,5 36,5 Z" />
	<path
		d="m 32.398437,14 c 0.29196,0.494408 0.544641,1.174806 0.5625,2 H 34 c 0.552285,0 1,-0.447715 1,-1 0,-0.552285 -0.447715,-1 -1,-1 z" />
	<path d="m 19,9 c -0.552285,0 -1,0.4477153 -1,1 v 1 h 2 V 10 C 20,9.4477153 19.552285,9 19,9 Z" />
	<path
		d="m 4,13 c -1.6447011,0 -3,1.355299 -3,3 v 16 c 0,1.644701 1.3552989,3 3,3 h 24 c 1.644701,0 3,-1.355299 3,-3 V 16 c 0,-1.644701 -1.355299,-3 -3,-3 z m 0,2 h 24 c 0.571297,0 1,0.428703 1,1 v 16 c 0,0.571297 -0.428703,1 -1,1 H 4 C 3.4287033,33 3,32.571297 3,32 V 16 c 0,-0.571297 0.4287033,-1 1,-1 z" />
	<path
		d="m 11,17 c -0.552284,0 -1,0.447716 -1,1 v 4 H 6 c -0.5522841,0 -1,0.447716 -1,1 0,0.552284 0.4477159,1 1,1 h 12 v 6 c 0,0.552284 0.447716,1 1,1 0.552284,0 1,-0.447716 1,-1 v -6 h 6 c 0.552284,0 1,-0.447716 1,-1 0,-0.552284 -0.447716,-1 -1,-1 H 12 v -4 c 0,-0.552284 -0.447716,-1 -1,-1 z" />
</svg>
